<svg width="24" height="24" viewBox="0 0 24 24" fill="none" xmlns="http://www.w3.org/2000/svg">
<path d="M8.54 10.73C8.44 10.42 8.35 10.12 8.25 9.81005C8.15 9.50005 8.06 9.21005 7.98 8.92005C7.9 8.64005 7.83 8.38005 7.76 8.14005H7.74C7.65 8.57005 7.54 9.00005 7.4 9.43005C7.25 9.91005 7.1 10.41 6.94 10.91C6.81 11.42 6.65 11.89 6.5 12.31H9.04C8.98 12.1 8.9 11.85 8.81 11.59C8.72 11.32 8.63 11.03 8.54 10.73ZM17.12 10.44C16.57 10.41 16.05 10.7 15.79 11.2C15.67 11.43 15.6 11.67 15.57 11.92H17.679C17.939 11.92 18.129 11.92 18.249 11.91C18.329 11.9 18.409 11.88 18.479 11.83V11.73C18.4751 11.5559 18.4368 11.3843 18.3663 11.225C18.2958 11.0657 18.1944 10.922 18.0681 10.8021C17.9418 10.6822 17.7929 10.5885 17.6302 10.5263C17.4675 10.4642 17.2941 10.4349 17.12 10.44ZM19.75 0.300049H4.25C1.9 0.300049 0 2.20005 0 4.55005V19.4501C0 21.8001 1.9 23.7001 4.25 23.7001H19.75C22.1 23.7001 24 21.8001 24 19.4501V4.55005C24 2.20005 22.1 0.300049 19.75 0.300049ZM12.71 16.8111H10.62C10.55 16.8211 10.48 16.77 10.46 16.701L9.64 14.301H5.92L5.16 16.661C5.14 16.751 5.06 16.8111 4.97 16.8011H3.09C2.98 16.8011 2.95 16.741 2.98 16.621L6.2 7.39005C6.23 7.29005 6.26 7.20005 6.3 7.08005C6.34 6.87005 6.36 6.65005 6.36 6.43005C6.35 6.38005 6.39 6.33005 6.44 6.32005H9.03C9.1 6.32005 9.15 6.35005 9.16 6.40005L12.81 16.65C12.84 16.76 12.811 16.8111 12.71 16.8111ZM20.561 12.82C20.54 13.009 20.53 13.15 20.52 13.24C20.51 13.31 20.451 13.37 20.38 13.37C20.32 13.37 20.21 13.38 20.05 13.391C19.892 13.411 19.699 13.4207 19.471 13.42C19.241 13.42 19 13.38 18.741 13.38H15.571C15.61 13.69 15.711 14 15.881 14.27C16.058 14.5392 16.312 14.7487 16.61 14.871C17.01 15.041 17.451 15.131 17.891 15.121C18.241 15.11 18.59 15.081 18.93 15.011C19.2354 14.9718 19.5347 14.8945 19.821 14.781C19.871 14.742 19.901 14.761 19.901 14.861V16.392C19.901 16.431 19.891 16.472 19.88 16.511C19.8621 16.5389 19.8386 16.5627 19.811 16.581C19.491 16.721 19.161 16.8211 18.811 16.8811C18.34 16.9711 17.871 17.011 17.391 17.001C16.63 17.001 15.991 16.881 15.471 16.651C14.9819 16.4377 14.55 16.1123 14.21 15.701C13.891 15.311 13.66 14.871 13.52 14.391C13.3799 13.9168 13.3095 13.4246 13.311 12.93C13.311 12.391 13.391 11.86 13.561 11.34C13.721 10.84 13.971 10.38 14.311 9.97005C14.641 9.57005 15.05 9.25005 15.52 9.02005C15.99 8.79005 16.55 8.71005 17.19 8.71005C17.7233 8.69728 18.2527 8.80316 18.74 9.02005C19.15 9.20005 19.51 9.47005 19.79 9.82005C20.05 10.16 20.26 10.54 20.391 10.96C20.52 11.36 20.58 11.77 20.58 12.18C20.58 12.42 20.57 12.63 20.561 12.82Z" fill="#E0EDE9"/>
</svg>
