<svg width="63" height="74" viewBox="0 0 63 74" fill="none" xmlns="http://www.w3.org/2000/svg">
<path d="M12.2034 14.96C12.5867 17.7967 13.3917 20.7867 14.6184 23.93C15.9217 27.0733 17.455 29.9867 19.2184 32.67C21.0584 35.2767 23.0517 37.4617 25.1984 39.225C27.345 40.9883 29.4534 41.87 31.5234 41.87C34.0534 41.87 36.4684 40.835 38.7684 38.765C41.145 36.695 43.215 34.1267 44.9784 31.06C46.8184 27.9933 48.2367 24.6967 49.2334 21.17C50.3067 17.5667 50.8434 14.27 50.8434 11.28V5.41499C50.8434 3.95833 51.3417 2.80833 52.3384 1.965C53.335 1.045 54.83 0.584994 56.8234 0.584994C58.8167 0.584994 60.3117 1.045 61.3084 1.965C62.305 2.80833 62.8034 3.95833 62.8034 5.41499V68.78C62.8034 70.2367 62.305 71.3867 61.3084 72.23C60.3117 73.15 58.8167 73.61 56.8234 73.61C54.83 73.61 53.335 73.15 52.3384 72.23C51.3417 71.3867 50.8434 70.2367 50.8434 68.78V31.405C49.8467 34.0117 48.6967 36.465 47.3934 38.765C46.1667 40.9883 44.7484 42.9433 43.1384 44.63C41.5284 46.3167 39.7267 47.6583 37.7334 48.655C35.8167 49.575 33.67 50.035 31.2934 50.035C28.15 50.035 25.4667 49.4983 23.2434 48.425C21.0967 47.3517 19.2567 46.0483 17.7234 44.515C16.2667 42.9817 15.0784 41.3717 14.1584 39.685C13.315 37.9217 12.6634 36.3883 12.2034 35.085V68.78C12.2034 70.2367 11.705 71.3867 10.7084 72.23C9.71169 73.15 8.21669 73.61 6.22336 73.61C4.23003 73.61 2.73503 73.15 1.73836 72.23C0.741693 71.3867 0.243359 70.2367 0.243359 68.78V5.41499C0.243359 3.95833 0.741693 2.80833 1.73836 1.965C2.73503 1.045 4.23003 0.584994 6.22336 0.584994C8.21669 0.584994 9.71169 1.045 10.7084 1.965C11.705 2.80833 12.2034 3.95833 12.2034 5.41499V14.96Z" fill="#E0EDE9"/>
</svg>
