<svg width="42" height="41" viewBox="0 0 42 41" fill="none" xmlns="http://www.w3.org/2000/svg">
<path d="M21 0.166687C18.2641 0.166687 15.5551 0.705557 13.0274 1.75253C10.4998 2.7995 8.20317 4.33407 6.26861 6.26863C2.36161 10.1756 0.166672 15.4747 0.166672 21C0.166672 30.2084 6.14584 38.0209 14.4167 40.7917C15.4583 40.9584 15.7917 40.3125 15.7917 39.75V36.2292C10.0208 37.4792 8.79167 33.4375 8.79167 33.4375C7.83334 31.0209 6.47917 30.375 6.47917 30.375C4.58334 29.0834 6.62501 29.125 6.62501 29.125C8.70834 29.2709 9.81251 31.2709 9.81251 31.2709C11.625 34.4375 14.6875 33.5 15.875 33C16.0625 31.6459 16.6042 30.7292 17.1875 30.2084C12.5625 29.6875 7.70834 27.8959 7.70834 19.9584C7.70834 17.6459 8.50001 15.7917 9.85417 14.3125C9.64584 13.7917 8.91667 11.625 10.0625 8.81252C10.0625 8.81252 11.8125 8.25002 15.7917 10.9375C17.4375 10.4792 19.2292 10.25 21 10.25C22.7708 10.25 24.5625 10.4792 26.2083 10.9375C30.1875 8.25002 31.9375 8.81252 31.9375 8.81252C33.0833 11.625 32.3542 13.7917 32.1458 14.3125C33.5 15.7917 34.2917 17.6459 34.2917 19.9584C34.2917 27.9167 29.4167 29.6667 24.7708 30.1875C25.5208 30.8334 26.2083 32.1042 26.2083 34.0417V39.75C26.2083 40.3125 26.5417 40.9792 27.6042 40.7917C35.875 38 41.8333 30.2084 41.8333 21C41.8333 18.2641 41.2945 15.5551 40.2475 13.0274C39.2005 10.4998 37.666 8.20318 35.7314 6.26863C33.7968 4.33407 31.5002 2.7995 28.9726 1.75253C26.445 0.705557 23.7359 0.166687 21 0.166687Z" fill="#E0EDE9"/>
</svg>
