<svg width="63" height="63" viewBox="0 0 63 63" fill="none" xmlns="http://www.w3.org/2000/svg">
<path d="M53.5312 9.34394C50.6663 6.44995 47.2537 4.1554 43.4926 2.5941C39.7315 1.03279 35.6972 0.236 31.625 0.250186C14.5625 0.250186 0.656251 14.1564 0.656251 31.2189C0.656251 36.6877 2.09375 42.0002 4.78125 46.6877L0.40625 62.7502L16.8125 58.4377C21.3438 60.9064 26.4375 62.2189 31.625 62.2189C48.6875 62.2189 62.5938 48.3127 62.5938 31.2502C62.5938 22.9689 59.375 15.1877 53.5312 9.34394ZM31.625 56.9689C27 56.9689 22.4688 55.7189 18.5 53.3752L17.5625 52.8127L7.8125 55.3752L10.4062 45.8752L9.78125 44.9064C7.21171 40.8032 5.84731 36.0603 5.84375 31.2189C5.84375 17.0314 17.4062 5.46894 31.5937 5.46894C38.4688 5.46894 44.9375 8.15644 49.7812 13.0314C52.1796 15.4188 54.0803 18.2585 55.3731 21.3859C56.6659 24.5133 57.3251 27.8661 57.3125 31.2502C57.375 45.4377 45.8125 56.9689 31.625 56.9689ZM45.75 37.7189C44.9687 37.3439 41.1562 35.4689 40.4688 35.1877C39.75 34.9377 39.25 34.8127 38.7188 35.5627C38.1875 36.3439 36.7188 38.0939 36.2812 38.5939C35.8438 39.1252 35.375 39.1877 34.5938 38.7814C33.8125 38.4064 31.3125 37.5627 28.375 34.9377C26.0625 32.8752 24.5312 30.3439 24.0625 29.5627C23.625 28.7814 24 28.3752 24.4062 27.9689C24.75 27.6252 25.1875 27.0627 25.5625 26.6252C25.9375 26.1877 26.0938 25.8439 26.3438 25.3439C26.5938 24.8127 26.4688 24.3752 26.2812 24.0002C26.0938 23.6252 24.5312 19.8127 23.9062 18.2502C23.2812 16.7502 22.625 16.9377 22.1562 16.9064H20.6562C20.125 16.9064 19.3125 17.0939 18.5938 17.8752C17.9062 18.6564 15.9062 20.5314 15.9062 24.3439C15.9062 28.1564 18.6875 31.8439 19.0625 32.3439C19.4375 32.8752 24.5312 40.6877 32.2812 44.0314C34.125 44.8439 35.5625 45.3127 36.6875 45.6564C38.5312 46.2502 40.2188 46.1564 41.5625 45.9689C43.0625 45.7502 46.1562 44.0939 46.7812 42.2814C47.4375 40.4689 47.4375 38.9377 47.2188 38.5939C47 38.2502 46.5312 38.0939 45.75 37.7189Z" fill="#E0EDE9"/>
</svg>
